<svg width="40" height="40" viewBox="0 0 40 40" fill="none" xmlns="http://www.w3.org/2000/svg">
<path d="M9.22666 36.4767C9.49627 36.6169 9.79898 36.6811 10.1023 36.6623C10.4056 36.6435 10.6981 36.5424 10.9483 36.37L32.615 21.37C32.8364 21.2166 33.0173 21.0119 33.1423 20.7733C33.2672 20.5347 33.3325 20.2693 33.3325 20C33.3325 19.7307 33.2672 19.4653 33.1423 19.2267C33.0173 18.9881 32.8364 18.7834 32.615 18.63L10.9483 3.62999C10.6986 3.45575 10.4057 3.35343 10.1018 3.33417C9.79789 3.31491 9.4945 3.37947 9.22474 3.5208C8.95498 3.66212 8.7292 3.8748 8.57201 4.13564C8.41482 4.39647 8.33226 4.69546 8.33332 4.99999V35C8.33327 35.3042 8.41649 35.6027 8.57397 35.863C8.73144 36.1233 8.95716 36.3355 9.22666 36.4767ZM11.6667 8.18166L28.7383 20L11.6667 31.8183V8.18166Z" fill="white"/>
</svg>
