<svg width="40" height="40" viewBox="0 0 40 40" fill="none" xmlns="http://www.w3.org/2000/svg">
<path d="M1.25 8.4375V31.5625H12.4225C13.4575 31.5625 20.585 31.3525 20.585 24.8438C20.585 20.7763 17.7875 19.3938 16.3675 18.9838C17.4125 18.4913 19.4925 17.3187 19.4925 14.18C19.4925 12.4312 19.2425 8.4375 12.11 8.4375H1.25ZM26.7188 10.5862V12.695H35.3513V10.5875L26.7188 10.5862ZM6.3275 12.3825H11.0938C11.5438 12.3825 14.57 12.1438 14.57 15.0388C14.57 17.5138 12.3825 17.7737 11.4838 17.7737H6.33L6.3275 12.3825ZM31.25 14.6088C24.7212 14.6088 23.3588 20.2788 23.3588 22.7338C23.3588 30.025 29.3362 30.8588 31.25 30.8588C36.4113 30.8588 37.875 27.52 38.4763 25.6638H34.7263C34.58 26.1425 33.4863 27.695 31.4062 27.695C27.9188 27.695 27.6175 24.97 27.6175 23.75H38.7112C38.9362 19.5312 37.09 14.6088 31.25 14.6088V14.6088ZM31.1325 17.7737C32.1725 17.7737 33.0125 18.0763 33.5162 18.6325C34.0187 19.195 34.39 20.015 34.4913 21.0938H27.6163C27.6363 20.7962 27.705 20.4538 27.8125 20.0775C27.92 19.6925 28.0862 19.3263 28.36 18.9838C28.6325 18.6475 29.0137 18.355 29.4537 18.125C29.9025 17.89 30.4588 17.7737 31.1325 17.7737V17.7737ZM6.32875 21.25H11.8362C12.93 21.25 15.5075 21.4213 15.5075 24.57C15.5075 27.6225 12.2613 27.6175 11.7575 27.6175H6.3275L6.32875 21.25Z" fill="#B71540"/>
</svg>
