<svg width="40" height="40" viewBox="0 0 40 40" fill="none" xmlns="http://www.w3.org/2000/svg">
<path d="M13.5 5C12.0413 5 10.6424 5.57946 9.6109 6.61091C8.57945 7.64236 7.99999 9.04131 7.99999 10.5V16.764C7.99999 17.558 7.55599 18.284 6.85199 18.648C6.5973 18.7704 6.38236 18.9622 6.23193 19.2014C6.08149 19.4406 6.00168 19.7174 6.00168 20C6.00168 20.2826 6.08149 20.5594 6.23193 20.7986C6.38236 21.0378 6.5973 21.2296 6.85199 21.352C7.55599 21.716 7.99999 22.442 7.99999 23.236V29.5C7.99999 30.9587 8.57945 32.3576 9.6109 33.3891C10.6424 34.4205 12.0413 35 13.5 35C13.8978 35 14.2793 34.842 14.5606 34.5607C14.842 34.2794 15 33.8978 15 33.5C15 33.1022 14.842 32.7206 14.5606 32.4393C14.2793 32.158 13.8978 32 13.5 32C12.12 32 11 30.88 11 29.5V23.236C11 22.036 10.58 20.896 9.84799 20C10.5934 19.0863 11.0004 17.9432 11 16.764V10.5C11 9.12 12.12 8 13.5 8C13.8978 8 14.2793 7.84196 14.5606 7.56066C14.842 7.27936 15 6.89782 15 6.5C15 6.10218 14.842 5.72064 14.5606 5.43934C14.2793 5.15804 13.8978 5 13.5 5ZM26.5 5C27.9587 5 29.3576 5.57946 30.3891 6.61091C31.4205 7.64236 32 9.04131 32 10.5V16.764C32 17.558 32.444 18.284 33.148 18.648C33.4027 18.7704 33.6176 18.9622 33.7681 19.2014C33.9185 19.4406 33.9983 19.7174 33.9983 20C33.9983 20.2826 33.9185 20.5594 33.7681 20.7986C33.6176 21.0378 33.4027 21.2296 33.148 21.352C32.802 21.5302 32.5118 21.8004 32.3093 22.1327C32.1068 22.4651 31.9998 22.8468 32 23.236V29.5C32 30.9587 31.4205 32.3576 30.3891 33.3891C29.3576 34.4205 27.9587 35 26.5 35C26.1022 35 25.7206 34.842 25.4393 34.5607C25.158 34.2794 25 33.8978 25 33.5C25 33.1022 25.158 32.7206 25.4393 32.4393C25.7206 32.158 26.1022 32 26.5 32C27.88 32 29 30.88 29 29.5V23.236C29 22.036 29.42 20.896 30.152 20C29.4065 19.0863 28.9996 17.9432 29 16.764V10.5C29 9.12 27.88 8 26.5 8C26.1022 8 25.7206 7.84196 25.4393 7.56066C25.158 7.27936 25 6.89782 25 6.5C25 6.10218 25.158 5.72064 25.4393 5.43934C25.7206 5.15804 26.1022 5 26.5 5Z" fill="#B71540"/>
</svg>
