<svg width="50" height="50" viewBox="0 0 50 50" fill="none" xmlns="http://www.w3.org/2000/svg">
<path d="M11.6062 16.4313C11.0094 12.5001 13.7812 8.96881 18.0156 7.67506C18.767 7.44532 19.5778 7.51072 20.2827 7.85793C20.9875 8.20515 21.5335 8.80805 21.8094 9.54381L23.1687 13.1688C23.3876 13.752 23.4271 14.3872 23.2824 14.993C23.1376 15.5989 22.8151 16.1476 22.3562 16.5688L18.3125 20.2719C18.1132 20.4548 17.9646 20.6863 17.8814 20.9437C17.7981 21.2011 17.783 21.4757 17.8375 21.7407L17.875 21.9032L17.9719 22.3094C18.4748 24.2833 19.241 26.1806 20.25 27.9501C21.3491 29.8304 22.7131 31.5427 24.3 33.0344L24.425 33.1469C24.6269 33.3261 24.8717 33.45 25.1357 33.5064C25.3997 33.5628 25.6737 33.5498 25.9312 33.4688L31.1594 31.8219C31.7535 31.6354 32.3899 31.6306 32.9868 31.8082C33.5836 31.9859 34.1139 32.3378 34.5094 32.8188L36.9844 35.8219C38.0156 37.0719 37.8906 38.9094 36.7062 40.0126C33.4656 43.0344 29.0094 43.6532 25.9094 41.1626C22.1094 38.0974 18.9061 34.3591 16.4594 30.1344C13.9928 25.913 12.3452 21.2639 11.6031 16.4313H11.6062ZM21.1156 21.9469L24.4656 18.8719C25.3838 18.0299 26.0295 16.9326 26.3196 15.7209C26.6097 14.5093 26.531 13.2386 26.0937 12.0719L24.7375 8.44694C24.1823 6.96646 23.0835 5.75337 21.665 5.05487C20.2465 4.35636 18.6151 4.22501 17.1031 4.68756C11.8437 6.29694 7.62186 11.0126 8.51561 16.9032C9.14061 21.0157 10.5812 26.2469 13.7594 31.7094C16.3991 36.2647 19.8545 40.2954 23.9531 43.6001C28.6031 47.3344 34.8094 46.0594 38.8406 42.3032C41.2344 40.0719 41.4781 36.3657 39.4 33.8407L36.925 30.8344C36.1332 29.8734 35.0725 29.1708 33.8787 28.8167C32.685 28.4626 31.4127 28.4731 30.225 28.8469L25.8844 30.2126C24.7636 29.057 23.782 27.7744 22.9594 26.3907C22.1647 24.9918 21.5455 23.5004 21.1156 21.9501V21.9469Z" fill="#B71540"/>
</svg>
