<svg width="40" height="40" viewBox="0 0 40 40" fill="none" xmlns="http://www.w3.org/2000/svg">
<path d="M20.4 4C11.6 4 7 9.6 7 15.8C7 18.8 8.6 21.8 11.2 23.4C12 23.8 11.8 23.4 12.4 21C12.4 20.8 12.4 20.6 12.2 20.4C8.6 16 11.6 7.4 20 7.4C32.2 7.4 29.8 24.2 22.2 24.2C20.6 24.4 19.2 23.2 19.2 21.6V20.8C20 18.6 20.6 16.6 20.8 14.4C20.8 10.2 14.6 10.8 14.6 16.4C14.6 17.4 14.8 18.4 15.2 19.2C15.2 19.2 13.2 27.4 12.8 28.8C12.4 31.2 12.6 33.6 13 35.8C12.8 36 13 36 13 36H13.2C14.6 34 15.8 32 16.6 29.8C16.8 28.8 17.8 25.2 17.8 25.2C18.8 26.6 20.6 27.4 22.4 27.4C28.6 27.4 33 22 33 15.4C33 8.8 27.4 4 20.4 4Z" fill="#B71540"/>
</svg>
