<svg width="55" height="34" viewBox="0 0 55 34" fill="none" xmlns="http://www.w3.org/2000/svg">
<g clip-path="url(#clip0_7_33)">
<path d="M35.7429 2.348H49.2996V5.6055H35.7429V2.348ZM22.159 15.2366C25.1558 13.8165 26.7255 11.6561 26.7255 8.31783C26.7255 1.71535 21.7649 0.113525 16.0364 0.113525H0.271271V33.2538H16.4781C22.5532 33.2538 28.2544 30.3597 28.2544 23.6294C28.2544 19.47 26.2702 16.3943 22.159 15.2366ZM7.62381 5.76702H14.5211C17.178 5.76702 19.5632 6.50063 19.5632 9.55621C19.5632 12.3695 17.7081 13.5002 15.0783 13.5002H7.62381V5.76702ZM15.4724 27.6272H7.61702V18.5009H15.6287C18.8633 18.5009 20.9087 19.8402 20.9087 23.2323C20.9087 26.5706 18.4692 27.6272 15.4724 27.6272ZM54.5999 21.6036C54.5999 14.503 50.4072 8.58704 42.8236 8.58704C35.4507 8.58704 30.4357 14.0857 30.4357 21.294C30.4357 28.7646 35.1857 33.8932 42.8236 33.8932C48.6064 33.8932 52.3507 31.3155 54.1514 25.8168H48.2871C47.6483 27.8695 45.0525 28.9464 43.0343 28.9464C39.1337 28.9464 37.0951 26.685 37.0951 22.8419H54.5523C54.5727 22.4448 54.5999 22.0276 54.5999 21.6036ZM37.0951 18.6826C37.3058 15.526 39.4327 13.554 42.613 13.554C45.9563 13.554 47.6279 15.4991 47.9201 18.6826H37.0951Z" fill="white"/>
</g>
<defs>
<clipPath id="clip0_7_33">
<rect width="54.7395" height="34" fill="white" transform="translate(0.0828247)"/>
</clipPath>
</defs>
</svg>
