<svg width="41" height="40" viewBox="0 0 41 40" fill="none" xmlns="http://www.w3.org/2000/svg">
<path fill-rule="evenodd" clip-rule="evenodd" d="M13.0133 1.77669C14.9951 1.68669 15.627 1.66669 20.6752 1.66669C25.7234 1.66669 26.3552 1.68835 28.3353 1.77669C30.3154 1.86502 31.667 2.17669 32.8496 2.62835C34.088 3.09002 35.2116 3.81169 36.1408 4.74502C37.0869 5.66002 37.8168 6.76669 38.2831 7.99002C38.7426 9.15669 39.0568 10.49 39.1481 12.44C39.2393 14.3984 39.2596 15.0217 39.2596 20C39.2596 24.98 39.2376 25.6034 39.1481 27.5584C39.0585 29.5084 38.7426 30.8417 38.2831 32.0084C37.8167 33.2318 37.0857 34.3404 36.1408 35.2567C35.2116 36.19 34.088 36.91 32.8496 37.37C31.667 37.8234 30.3154 38.1334 28.3387 38.2234C26.3552 38.3134 25.7234 38.3334 20.6752 38.3334C15.627 38.3334 14.9951 38.3117 13.0133 38.2234C11.0366 38.135 9.68503 37.8234 8.50238 37.37C7.26216 36.91 6.13848 36.1888 5.20956 35.2567C4.26409 34.3411 3.53243 33.2332 3.0656 32.01C2.60774 30.8433 2.2935 29.51 2.20227 27.56C2.11103 25.6017 2.09076 24.9784 2.09076 20C2.09076 15.02 2.11272 14.3967 2.20227 12.4434C2.29181 10.49 2.60774 9.15669 3.0656 7.99002C3.53312 6.76682 4.26534 5.65888 5.21125 4.74335C6.13885 3.81086 7.2614 3.08909 8.50069 2.62835C9.68334 2.17669 11.0349 1.86669 13.0116 1.77669H13.0133ZM28.185 5.07669C26.2252 4.98835 25.6372 4.97002 20.6752 4.97002C15.7131 4.97002 15.1252 4.98835 13.1654 5.07669C11.3526 5.15835 10.3693 5.45669 9.71375 5.70835C8.84704 6.04169 8.22699 6.43669 7.57654 7.07835C6.95995 7.67011 6.48543 8.39049 6.18778 9.18669C5.93266 9.83335 5.63024 10.8034 5.54746 12.5917C5.45792 14.525 5.43933 15.105 5.43933 20C5.43933 24.895 5.45792 25.475 5.54746 27.4083C5.63024 29.1967 5.93266 30.1667 6.18778 30.8134C6.48513 31.6084 6.95988 32.33 7.57654 32.9217C8.17631 33.53 8.90786 33.9984 9.71375 34.2917C10.3693 34.5434 11.3526 34.8417 13.1654 34.9234C15.1252 35.0117 15.7114 35.03 20.6752 35.03C25.6389 35.03 26.2252 35.0117 28.185 34.9234C29.9978 34.8417 30.9811 34.5434 31.6366 34.2917C32.5033 33.9584 33.1233 33.5634 33.7738 32.9217C34.3905 32.33 34.8652 31.6084 35.1626 30.8134C35.4177 30.1667 35.7201 29.1967 35.8029 27.4083C35.8924 25.475 35.911 24.895 35.911 20C35.911 15.105 35.8924 14.525 35.8029 12.5917C35.7201 10.8034 35.4177 9.83335 35.1626 9.18669C34.8247 8.33169 34.4243 7.72002 33.7738 7.07835C33.1739 6.47014 32.4437 6.00204 31.6366 5.70835C30.9811 5.45669 29.9978 5.15835 28.185 5.07669ZM18.3014 25.6517C19.6271 26.1961 21.1033 26.2695 22.4777 25.8596C23.8522 25.4496 25.0398 24.5815 25.8376 23.4038C26.6354 22.226 26.994 20.8115 26.852 19.4019C26.7101 17.9923 26.0765 16.675 25.0594 15.675C24.411 15.0358 23.6271 14.5464 22.7639 14.2419C21.9008 13.9375 20.98 13.8256 20.0678 13.9144C19.1556 14.0031 18.2747 14.2903 17.4885 14.7552C16.7023 15.2202 16.0303 15.8513 15.521 16.6031C15.0118 17.3549 14.6778 18.2088 14.5432 19.1033C14.4086 19.9977 14.4767 20.9105 14.7426 21.7759C15.0085 22.6413 15.4656 23.4377 16.081 24.1079C16.6964 24.7781 17.4547 25.3053 18.3014 25.6517ZM13.9206 13.3367C14.8076 12.4616 15.8607 11.7675 17.0196 11.294C18.1786 10.8204 19.4207 10.5766 20.6752 10.5766C21.9296 10.5766 23.1718 10.8204 24.3307 11.294C25.4897 11.7675 26.5427 12.4616 27.4298 13.3367C28.3168 14.2117 29.0204 15.2506 29.5005 16.3938C29.9805 17.5371 30.2276 18.7625 30.2276 20C30.2276 21.2375 29.9805 22.4629 29.5005 23.6062C29.0204 24.7495 28.3168 25.7883 27.4298 26.6634C25.6383 28.4306 23.2086 29.4234 20.6752 29.4234C18.1417 29.4234 15.712 28.4306 13.9206 26.6634C12.1292 24.8961 11.1227 22.4993 11.1227 20C11.1227 17.5008 12.1292 15.1039 13.9206 13.3367ZM32.3462 11.98C32.566 11.7755 32.742 11.5295 32.8637 11.2566C32.9854 10.9838 33.0504 10.6896 33.0548 10.3916C33.0592 10.0935 33.0029 9.7976 32.8893 9.52137C32.7757 9.24514 32.6071 8.9942 32.3934 8.78342C32.1797 8.57263 31.9254 8.40628 31.6454 8.29422C31.3654 8.18215 31.0654 8.12665 30.7632 8.13099C30.4611 8.13534 30.1629 8.19944 29.8863 8.31951C29.6097 8.43958 29.3604 8.61318 29.153 8.83002C28.7498 9.25174 28.529 9.81189 28.5376 10.3916C28.5461 10.9713 28.7834 11.5248 29.1989 11.9348C29.6145 12.3447 30.1756 12.5787 30.7632 12.5872C31.3509 12.5956 31.9187 12.3778 32.3462 11.98Z" fill="white"/>
</svg>
