<svg width="41" height="40" viewBox="0 0 41 40" fill="none" xmlns="http://www.w3.org/2000/svg">
<path d="M20.7177 4C11.7972 4 7.13416 9.6 7.13416 15.8C7.13416 18.8 8.75607 21.8 11.3917 23.4C12.2026 23.8 11.9999 23.4 12.6081 21C12.6081 20.8 12.6081 20.6 12.4054 20.4C8.75607 16 11.7972 7.4 20.3122 7.4C32.6793 7.4 30.2464 24.2 22.5423 24.2C20.9204 24.4 19.5012 23.2 19.5012 21.6V20.8C20.3122 18.6 20.9204 16.6 21.1231 14.4C21.1231 10.2 14.8382 10.8 14.8382 16.4C14.8382 17.4 15.041 18.4 15.4465 19.2C15.4465 19.2 13.4191 27.4 13.0136 28.8C12.6081 31.2 12.8108 33.6 13.2163 35.8C13.0136 36 13.2163 36 13.2163 36H13.4191C14.8382 34 16.0547 32 16.8656 29.8C17.0684 28.8 18.0821 25.2 18.0821 25.2C19.0958 26.6 20.9204 27.4 22.7451 27.4C29.03 27.4 33.4902 22 33.4902 15.4C33.4902 8.8 27.8135 4 20.7177 4Z" fill="white"/>
</svg>
