<svg width="42" height="40" viewBox="0 0 42 40" fill="none" xmlns="http://www.w3.org/2000/svg">
<path d="M40.7091 8.22836C39.2983 8.84503 37.7829 9.26169 36.1897 9.45003C37.8336 8.47968 39.0634 6.95247 39.6498 5.15336C38.1053 6.05834 36.415 6.69535 34.6522 7.03669C33.4669 5.78814 31.8968 4.96057 30.1858 4.68248C28.4748 4.4044 26.7186 4.69135 25.1898 5.49878C23.6611 6.30622 22.4453 7.58896 21.7313 9.14787C21.0173 10.7068 20.8449 12.4546 21.2411 14.12C18.1116 13.965 15.0501 13.1626 12.2554 11.7649C9.46061 10.3671 6.995 8.4053 5.01856 6.00669C4.34276 7.15669 3.95418 8.49003 3.95418 9.91003C3.95343 11.1884 4.27254 12.4471 4.8832 13.5746C5.49385 14.7021 6.37718 15.6634 7.45481 16.3734C6.20505 16.3341 4.98287 16.001 3.88998 15.4017V15.5017C3.88985 17.2946 4.51853 19.0323 5.66932 20.42C6.82012 21.8077 8.42216 22.7599 10.2036 23.115C9.04425 23.4246 7.82875 23.4701 6.64892 23.2484C7.15154 24.791 8.1306 26.1401 9.44903 27.1066C10.7675 28.0731 12.3593 28.6087 14.0016 28.6384C11.2136 30.7974 7.77055 31.9685 4.22619 31.9634C3.59834 31.9635 2.97102 31.9274 2.34747 31.855C5.94521 34.137 10.1332 35.3481 14.4104 35.3434C28.8894 35.3434 36.8047 23.5134 36.8047 13.2534C36.8047 12.92 36.7962 12.5834 36.781 12.25C38.3206 11.1516 39.6496 9.79152 40.7057 8.23336L40.7091 8.22836Z" fill="white"/>
</svg>
